<mxfile host="app.diagrams.net" modified="2020-03-16T13:11:41.545Z" agent="Mozilla/5.0 (Windows NT 10.0; Win64; x64) AppleWebKit/537.36 (KHTML, like Gecko) Chrome/80.0.3987.132 Safari/537.36" etag="5dd0KH_UHS3aDMcnL-8U" version="12.8.5" type="github">
  <diagram id="C5RBs43oDa-KdzZeNtuy" name="Page-1">
    <mxGraphModel dx="1174" dy="804" grid="1" gridSize="10" guides="1" tooltips="1" connect="1" arrows="1" fold="1" page="1" pageScale="1" pageWidth="827" pageHeight="1169" math="0" shadow="0">
      <root>
        <mxCell id="WIyWlLk6GJQsqaUBKTNV-0" />
        <mxCell id="WIyWlLk6GJQsqaUBKTNV-1" parent="WIyWlLk6GJQsqaUBKTNV-0" />
        <mxCell id="40auVzaq7Y3pPmp8lmYk-2" value="" style="rounded=0;whiteSpace=wrap;html=1;" vertex="1" parent="WIyWlLk6GJQsqaUBKTNV-1">
          <mxGeometry x="80" y="30" width="680" height="420" as="geometry" />
        </mxCell>
        <mxCell id="40auVzaq7Y3pPmp8lmYk-20" style="edgeStyle=orthogonalEdgeStyle;rounded=0;orthogonalLoop=1;jettySize=auto;html=1;" edge="1" parent="WIyWlLk6GJQsqaUBKTNV-1" source="40auVzaq7Y3pPmp8lmYk-0" target="40auVzaq7Y3pPmp8lmYk-1">
          <mxGeometry relative="1" as="geometry" />
        </mxCell>
        <mxCell id="40auVzaq7Y3pPmp8lmYk-0" value="ACR" style="shape=cylinder;whiteSpace=wrap;html=1;boundedLbl=1;backgroundOutline=1;" vertex="1" parent="WIyWlLk6GJQsqaUBKTNV-1">
          <mxGeometry x="250" y="100" width="60" height="60" as="geometry" />
        </mxCell>
        <mxCell id="40auVzaq7Y3pPmp8lmYk-1" value="ACR" style="shape=cylinder;whiteSpace=wrap;html=1;boundedLbl=1;backgroundOutline=1;" vertex="1" parent="WIyWlLk6GJQsqaUBKTNV-1">
          <mxGeometry x="570" y="100" width="60" height="60" as="geometry" />
        </mxCell>
        <mxCell id="40auVzaq7Y3pPmp8lmYk-16" style="edgeStyle=orthogonalEdgeStyle;rounded=0;orthogonalLoop=1;jettySize=auto;html=1;" edge="1" parent="WIyWlLk6GJQsqaUBKTNV-1" source="40auVzaq7Y3pPmp8lmYk-6" target="40auVzaq7Y3pPmp8lmYk-7">
          <mxGeometry relative="1" as="geometry" />
        </mxCell>
        <mxCell id="40auVzaq7Y3pPmp8lmYk-19" style="edgeStyle=orthogonalEdgeStyle;rounded=0;orthogonalLoop=1;jettySize=auto;html=1;" edge="1" parent="WIyWlLk6GJQsqaUBKTNV-1" source="40auVzaq7Y3pPmp8lmYk-6" target="40auVzaq7Y3pPmp8lmYk-13">
          <mxGeometry relative="1" as="geometry" />
        </mxCell>
        <mxCell id="40auVzaq7Y3pPmp8lmYk-6" value="" style="strokeWidth=2;html=1;shape=mxgraph.flowchart.direct_data;whiteSpace=wrap;" vertex="1" parent="WIyWlLk6GJQsqaUBKTNV-1">
          <mxGeometry x="160" y="350" width="110" height="30" as="geometry" />
        </mxCell>
        <mxCell id="40auVzaq7Y3pPmp8lmYk-7" value="DEV" style="shape=cube;whiteSpace=wrap;html=1;boundedLbl=1;backgroundOutline=1;darkOpacity=0.05;darkOpacity2=0.1;" vertex="1" parent="WIyWlLk6GJQsqaUBKTNV-1">
          <mxGeometry x="170" y="210" width="90" height="80" as="geometry" />
        </mxCell>
        <mxCell id="40auVzaq7Y3pPmp8lmYk-8" value="PROD" style="shape=cube;whiteSpace=wrap;html=1;boundedLbl=1;backgroundOutline=1;darkOpacity=0.05;darkOpacity2=0.1;" vertex="1" parent="WIyWlLk6GJQsqaUBKTNV-1">
          <mxGeometry x="330" y="210" width="90" height="80" as="geometry" />
        </mxCell>
        <mxCell id="40auVzaq7Y3pPmp8lmYk-11" value="" style="endArrow=classic;html=1;entryX=0.544;entryY=-0.062;entryDx=0;entryDy=0;entryPerimeter=0;" edge="1" parent="WIyWlLk6GJQsqaUBKTNV-1" target="40auVzaq7Y3pPmp8lmYk-7">
          <mxGeometry width="50" height="50" relative="1" as="geometry">
            <mxPoint x="285" y="160" as="sourcePoint" />
            <mxPoint x="235" y="210" as="targetPoint" />
          </mxGeometry>
        </mxCell>
        <mxCell id="40auVzaq7Y3pPmp8lmYk-18" style="edgeStyle=orthogonalEdgeStyle;rounded=0;orthogonalLoop=1;jettySize=auto;html=1;entryX=0;entryY=0;entryDx=55;entryDy=80;entryPerimeter=0;" edge="1" parent="WIyWlLk6GJQsqaUBKTNV-1" source="40auVzaq7Y3pPmp8lmYk-13" target="40auVzaq7Y3pPmp8lmYk-8">
          <mxGeometry relative="1" as="geometry" />
        </mxCell>
        <mxCell id="40auVzaq7Y3pPmp8lmYk-13" value="" style="strokeWidth=2;html=1;shape=mxgraph.flowchart.direct_data;whiteSpace=wrap;" vertex="1" parent="WIyWlLk6GJQsqaUBKTNV-1">
          <mxGeometry x="330" y="350" width="110" height="30" as="geometry" />
        </mxCell>
        <mxCell id="40auVzaq7Y3pPmp8lmYk-15" value="" style="rounded=0;comic=1;strokeWidth=2;endArrow=blockThin;html=1;fontFamily=Comic Sans MS;fontStyle=1;entryX=0.289;entryY=-0.05;entryDx=0;entryDy=0;entryPerimeter=0;" edge="1" parent="WIyWlLk6GJQsqaUBKTNV-1" target="40auVzaq7Y3pPmp8lmYk-8">
          <mxGeometry width="50" height="50" relative="1" as="geometry">
            <mxPoint x="290" y="160" as="sourcePoint" />
            <mxPoint x="340" y="110" as="targetPoint" />
          </mxGeometry>
        </mxCell>
        <mxCell id="40auVzaq7Y3pPmp8lmYk-17" style="edgeStyle=orthogonalEdgeStyle;rounded=0;orthogonalLoop=1;jettySize=auto;html=1;exitX=0.5;exitY=1;exitDx=0;exitDy=0;exitPerimeter=0;" edge="1" parent="WIyWlLk6GJQsqaUBKTNV-1">
          <mxGeometry relative="1" as="geometry">
            <mxPoint x="219" y="390" as="sourcePoint" />
            <mxPoint x="219" y="390" as="targetPoint" />
          </mxGeometry>
        </mxCell>
        <mxCell id="40auVzaq7Y3pPmp8lmYk-22" style="edgeStyle=orthogonalEdgeStyle;rounded=0;orthogonalLoop=1;jettySize=auto;html=1;" edge="1" parent="WIyWlLk6GJQsqaUBKTNV-1" source="40auVzaq7Y3pPmp8lmYk-21" target="40auVzaq7Y3pPmp8lmYk-6">
          <mxGeometry relative="1" as="geometry" />
        </mxCell>
        <mxCell id="40auVzaq7Y3pPmp8lmYk-21" value="" style="shape=actor;whiteSpace=wrap;html=1;" vertex="1" parent="WIyWlLk6GJQsqaUBKTNV-1">
          <mxGeometry x="20" y="335" width="40" height="60" as="geometry" />
        </mxCell>
        <mxCell id="40auVzaq7Y3pPmp8lmYk-23" value="" style="line;strokeWidth=4;direction=south;html=1;perimeter=backbonePerimeter;points=[];outlineConnect=0;" vertex="1" parent="WIyWlLk6GJQsqaUBKTNV-1">
          <mxGeometry x="450" y="50" width="10" height="380" as="geometry" />
        </mxCell>
      </root>
    </mxGraphModel>
  </diagram>
</mxfile>
